<svg xmlns="http://www.w3.org/2000/svg" xmlns:xlink="http://www.w3.org/1999/xlink" version="1.1" width="245.148" height="82.2785" viewBox="0 0 245.148 82.2785">
<defs>
<clipPath id="clip_0">
<path transform="matrix(1,0,0,-1,0,82.2785)" d="M0 82.278H245.148V0H0Z"/>
</clipPath>
</defs>
<g id="layer_1" data-name="Camada 1">
<g clip-path="url(#clip_0)">
<path transform="matrix(1,0,0,-1,43.194,49.822305)" d="M0 0C-.327 .566-.888 .89-1.541 .89H-20.223C-20.94 .89-21.554 1.288-21.847 1.943-22.14 2.598-22.028 3.321-21.549 3.856L8.979 37.992C9.316 38.369 9.467 38.818 9.426 39.322 9.385 39.826 9.164 40.244 8.771 40.562L1.538 46.405C.878 46.938-.039 46.938-.699 46.405L-23.682 27.846V31.365C-23.682 32.436-24.558 33.311-25.629 33.311H-29.985C-31.056 33.311-31.932 32.436-31.932 31.365V21.185L-37.261 16.881C-37.691 16.534-37.92 16.058-37.922 15.505L-38.131-27.651C-38.133-28.142-37.959-28.566-37.613-28.915-37.266-29.263-36.843-29.439-36.351-29.439H-16.997C-16.343-29.439-15.782-29.115-15.456-28.549L0-1.779C.327-1.214 .327-.566 0 0" fill="#ffffff"/>
<path transform="matrix(1,0,0,-1,81.7264,33.303403)" d="M0 0-24.243 19.585C-24.662 19.924-25.157 20.049-25.687 19.95-26.216 19.852-26.633 19.557-26.903 19.091L-37.526 .69C-37.853 .124-37.853-.524-37.526-1.09-37.2-1.656-36.639-1.979-35.985-1.979H-17.163C-16.451-1.979-15.841-2.371-15.545-3.019-15.249-3.667-15.351-4.384-15.817-4.923L-48.747-43.014C-49.213-43.553-49.316-44.27-49.019-44.918-48.723-45.566-48.114-45.958-47.401-45.958H-1.325C-.348-45.958 .45-45.164 .455-44.187L.661-1.393C.664-.834 .435-.352 0 0" fill="#f41414"/>
<path transform="matrix(1,0,0,-1,118.4108,31.945805)" d="M0 0C-.803-.328-1.731-.491-2.786-.491-3.693-.491-4.522-.338-5.27-.032-6.02 .274-6.668 .717-7.217 1.298-7.766 1.878-8.193 2.569-8.499 3.371-8.805 4.173-8.958 5.069-8.958 6.062-8.958 7.053-8.805 7.95-8.499 8.752-8.193 9.554-7.766 10.245-7.217 10.825-6.668 11.405-6.02 11.843-5.27 12.139-4.522 12.434-3.693 12.582-2.786 12.582-1.731 12.582-.813 12.413-.032 12.075 .749 11.738 1.403 11.273 1.931 10.683L5.729 14.481C4.652 15.473 3.408 16.248 1.994 16.808 .58 17.367-1.013 17.646-2.786 17.646-4.474 17.646-6.041 17.351-7.486 16.76-8.932 16.169-10.198 15.357-11.285 14.323-12.371 13.289-13.215 12.07-13.817 10.667-14.418 9.263-14.719 7.728-14.719 6.062-14.719 4.416-14.418 2.885-13.817 1.472-13.215 .058-12.371-1.171-11.285-2.216-10.198-3.261-8.926-4.073-7.471-4.653-6.014-5.233-4.432-5.524-2.722-5.524-.866-5.524 .754-5.249 2.136-4.701 3.518-4.152 4.758-3.382 5.856-2.39L2.057 1.408C1.487 .796 .802 .327 0 0" fill="#ffffff"/>
<path transform="matrix(1,0,0,-1,136.8322,37.121206)" d="M0 0 3.897 13.357 7.818 0H12.377L19.53 22.442H13.959L10.042 9.239 6.172 22.442H1.646L-2.207 9.292-6.109 22.442H-11.711L-4.59 0Z" fill="#ffffff"/>
<path transform="matrix(1,0,0,-1,167.567,18.889103)" d="M0 0C.739 0 1.345-.185 1.82-.554 2.295-.923 2.532-1.499 2.532-2.279 2.532-3.06 2.295-3.635 1.82-4.004 1.345-4.374 .739-4.558 0-4.558H-3.26V0ZM2.453-13.278C1.936-13.775 1.234-14.022 .348-14.022H-3.26V-8.641H.348C.939-8.641 1.45-8.752 1.883-8.974 2.316-9.195 2.648-9.512 2.88-9.923 3.112-10.335 3.229-10.804 3.229-11.332 3.229-12.134 2.97-12.783 2.453-13.278M-3.26-18.232H1.14C2.701-18.232 4.056-17.947 5.207-17.377 6.357-16.808 7.249-16.032 7.882-15.051 8.515-14.07 8.831-12.946 8.831-11.68 8.831-9.971 8.262-8.552 7.122-7.423 6.658-6.964 6.107-6.581 5.475-6.266 5.908-6.026 6.297-5.749 6.631-5.428 7.655-4.447 8.166-3.208 8.166-1.709 8.166-.591 7.892 .412 7.344 1.298 6.795 2.184 6.009 2.891 4.985 3.418 3.962 3.946 2.754 4.21 1.361 4.21H-3.26-4.337-8.831V-18.232H-4.337Z" fill="#ffffff"/>
<path transform="matrix(1,0,0,-1,108.8515,48.670606)" d="M0 0H4.495C5.613 0 6.478-.317 7.09-.95 7.702-1.583 8.008-2.364 8.008-3.292 8.008-4.326 7.697-5.133 7.074-5.714 6.452-6.294 5.581-6.584 4.463-6.584H0ZM8.324-8.8C9.38-8.272 10.197-7.534 10.778-6.584 11.358-5.634 11.648-4.516 11.648-3.229 11.648-2.005 11.358-.913 10.778 .047 10.197 1.007 9.38 1.767 8.324 2.326 7.269 2.885 6.045 3.165 4.652 3.165H0-1.14-3.64V-18.992H0V-9.591H.938L8.515-18.992H13.104L5.321-9.558C6.437-9.486 7.443-9.24 8.324-8.8" fill="#ffffff"/>
<path transform="matrix(1,0,0,-1,128.2865,57.945005)" d="M0 0H10.192V3.197H0V9.116H11.11V12.44H0-1.14-3.64V-9.717H-1.14 0 11.268V-6.394H0Z" fill="#ffffff"/>
<path transform="matrix(1,0,0,-1,154.7481,54.3842)" d="M0 0C-.338-.559-.797-.992-1.377-1.298-1.958-1.604-2.627-1.757-3.387-1.757H-7.786V5.714H-3.387C-2.627 5.714-1.958 5.56-1.377 5.254-.797 4.948-.338 4.516 0 3.957 .337 3.397 .506 2.738 .506 1.978 .506 1.219 .337 .559 0 0M3.181 5.618C2.537 6.652 1.662 7.454 .554 8.024-.554 8.594-1.805 8.879-3.197 8.879H-7.786-8.926-11.427V-13.278H-7.786V-4.922H-3.197C-1.805-4.922-.554-4.637 .554-4.067 1.662-3.497 2.537-2.696 3.181-1.662 3.825-.628 4.146 .586 4.146 1.978 4.146 3.371 3.825 4.584 3.181 5.618" fill="#ffffff"/>
<path transform="matrix(1,0,0,-1,165.5945,60.224004)" d="M0 0 3.521 8.834 7.011 0ZM2.29 14.719-6.826-7.439H-2.965L-1.262-3.165H8.262L9.95-7.439H13.875L4.822 14.719Z" fill="#ffffff"/>
<path transform="matrix(1,0,0,-1,186.0214,48.670606)" d="M0 0H4.494C5.613 0 6.478-.317 7.09-.95 7.702-1.583 8.008-2.364 8.008-3.292 8.008-4.326 7.697-5.133 7.074-5.714 6.452-6.294 5.581-6.584 4.463-6.584H0ZM8.324-8.8C9.38-8.272 10.197-7.534 10.778-6.584 11.358-5.634 11.648-4.516 11.648-3.229 11.648-2.005 11.358-.913 10.778 .047 10.197 1.007 9.38 1.767 8.324 2.326 7.269 2.885 6.045 3.165 4.652 3.165H0-1.14-3.64V-18.992H0V-9.591H.938L8.515-18.992H13.104L5.321-9.558C6.437-9.486 7.443-9.24 8.324-8.8" fill="#ffffff"/>
<path transform="matrix(1,0,0,-1,218.2917,60.682905)" d="M0 0C-.644-1.193-1.53-2.126-2.659-2.801-3.788-3.477-5.102-3.814-6.6-3.814-7.697-3.814-8.71-3.62-9.639-3.229-10.567-2.839-11.364-2.295-12.029-1.599-12.693-.902-13.21-.063-13.579 .918-13.949 1.899-14.133 2.97-14.133 4.13-14.133 5.692-13.812 7.064-13.168 8.245-12.524 9.427-11.638 10.351-10.509 11.015-9.38 11.68-8.077 12.012-6.6 12.012-5.482 12.012-4.463 11.822-3.545 11.442-2.627 11.063-1.831 10.519-1.156 9.812-.48 9.105 .042 8.272 .412 7.312 .78 6.351 .965 5.291 .965 4.13 .965 2.569 .644 1.192 0 0M1.409 12.186C.374 13.231-.823 14.043-2.184 14.624-3.545 15.204-5.017 15.494-6.6 15.494-8.182 15.494-9.654 15.204-11.016 14.624-12.377 14.043-13.569 13.231-14.592 12.186-15.616 11.142-16.418 9.934-16.997 8.562-17.578 7.19-17.868 5.713-17.868 4.13-17.868 2.548-17.578 1.065-16.997-.317-16.418-1.699-15.61-2.912-14.576-3.957-13.543-5.001-12.34-5.819-10.968-6.41-9.596-7-8.119-7.296-6.536-7.296-4.975-7.296-3.513-7-2.153-6.41-.792-5.819 .4-5.007 1.425-3.973 2.447-2.939 3.249-1.731 3.83-.348 4.41 1.034 4.701 2.516 4.701 4.099 4.701 5.682 4.41 7.164 3.83 8.546 3.249 9.928 2.442 11.142 1.409 12.186" fill="#ffffff"/>
<path transform="matrix(1,0,0,-1,239.5148,58.578004)" d="M0 0C-.38 .78-.881 1.419-1.503 1.915-2.126 2.411-2.812 2.817-3.561 3.134-4.31 3.45-5.059 3.735-5.808 3.988-6.557 4.241-7.244 4.51-7.866 4.796-8.488 5.08-8.99 5.429-9.37 5.84-9.749 6.251-9.939 6.794-9.939 7.47-9.939 8.272-9.628 8.895-9.006 9.338-8.383 9.781-7.523 10.002-6.425 10.002-5.539 10.002-4.754 9.828-4.068 9.48-3.382 9.132-2.722 8.599-2.089 7.882L.38 10.351C-.338 11.237-1.271 11.965-2.422 12.535-3.572 13.104-4.874 13.389-6.331 13.389-7.681 13.389-8.905 13.146-10.003 12.661-11.1 12.176-11.97 11.474-12.614 10.556-13.258 9.638-13.579 8.525-13.579 7.217-13.579 6.077-13.389 5.138-13.009 4.4-12.63 3.661-12.128 3.059-11.506 2.595-10.883 2.131-10.198 1.746-9.448 1.44-8.7 1.134-7.95 .859-7.201 .617-6.452 .374-5.766 .1-5.143-.206-4.522-.512-4.02-.897-3.64-1.361-3.26-1.826-3.071-2.427-3.071-3.165-3.071-4.052-3.435-4.748-4.162-5.254-4.89-5.761-5.867-6.014-7.09-6.014-8.399-6.014-9.475-5.766-10.319-5.27-11.163-4.775-11.891-4.083-12.503-3.197L-14.972-5.666C-14.002-6.89-12.904-7.818-11.68-8.451-10.457-9.084-8.969-9.401-7.217-9.401-4.833-9.401-2.939-8.821-1.535-7.66-.132-6.5 .57-4.928 .57-2.944 .57-1.762 .38-.781 0 0" fill="#ffffff"/>
</g>
</g>
</svg>
